<svg width="323" height="243" viewBox="0 0 323 243" fill="none" xmlns="http://www.w3.org/2000/svg">
<path d="M42.2588 136.664H32.9342C32.7639 135.458 32.4161 134.386 31.891 133.45C31.3659 132.499 30.6917 131.69 29.8686 131.023C29.0454 130.356 28.0945 129.845 27.0158 129.49C25.9514 129.135 24.7947 128.958 23.5457 128.958C21.2891 128.958 19.3234 129.518 17.6486 130.639C15.9739 131.746 14.6753 133.364 13.7527 135.493C12.8302 137.608 12.3689 140.177 12.3689 143.2C12.3689 146.308 12.8302 148.92 13.7527 151.034C14.6895 153.149 15.9952 154.746 17.6699 155.824C19.3447 156.903 21.282 157.442 23.4818 157.442C24.7166 157.442 25.8591 157.279 26.9094 156.953C27.9738 156.626 28.9176 156.151 29.7408 155.526C30.564 154.888 31.2452 154.114 31.7846 153.206C32.3381 152.298 32.7213 151.261 32.9342 150.098L42.2588 150.14C42.0175 152.141 41.4143 154.072 40.4492 155.931C39.4983 157.776 38.2139 159.429 36.5959 160.891C34.9921 162.339 33.0761 163.488 30.8479 164.34C28.6338 165.177 26.1288 165.596 23.3328 165.596C19.444 165.596 15.9668 164.716 12.9012 162.956C9.84974 161.196 7.43698 158.649 5.66289 155.313C3.90299 151.978 3.02305 147.94 3.02305 143.2C3.02305 138.445 3.91719 134.401 5.70547 131.065C7.49375 127.73 9.9207 125.189 12.9863 123.444C16.052 121.684 19.5008 120.804 23.3328 120.804C25.8591 120.804 28.2009 121.159 30.3582 121.868C32.5297 122.578 34.4528 123.614 36.1275 124.977C37.8023 126.325 39.1648 127.978 40.215 129.937C41.2795 131.896 41.9607 134.138 42.2588 136.664ZM99.556 165V146.165L143.565 105.415C147.308 101.793 150.447 98.5334 152.983 95.6356C155.559 92.7379 157.511 89.9006 158.839 87.1236C160.167 84.3063 160.831 81.2678 160.831 78.0078C160.831 74.3857 160.006 71.2666 158.356 68.6506C156.706 65.9943 154.452 63.9619 151.594 62.5533C148.737 61.1044 145.497 60.38 141.875 60.38C138.092 60.38 134.792 61.1446 131.974 62.674C129.157 64.2034 126.984 66.3968 125.454 69.2543C123.925 72.1117 123.16 75.5125 123.16 79.4567H98.3486C98.3486 71.3672 100.18 64.3442 103.842 58.3878C107.505 52.4313 112.636 47.8232 119.236 44.5632C125.837 41.3033 133.443 39.6733 142.056 39.6733C150.91 39.6733 158.617 41.2429 165.177 44.3821C171.778 47.4811 176.909 51.7874 180.572 57.3011C184.234 62.8149 186.065 69.1335 186.065 76.2571C186.065 80.9257 185.14 85.5339 183.288 90.0817C181.477 94.6295 178.237 99.6804 173.569 105.234C168.9 110.748 162.32 117.369 153.828 125.096L135.778 142.784V143.629H187.695V165H99.556ZM265.936 166.69C256.92 166.69 248.891 165.141 241.848 162.042C234.845 158.903 229.312 154.596 225.247 149.123C221.222 143.609 219.149 137.25 219.029 130.046H245.35C245.511 133.065 246.497 135.721 248.308 138.015C250.159 140.269 252.614 142.019 255.673 143.267C258.732 144.515 262.173 145.138 265.996 145.138C269.98 145.138 273.502 144.434 276.561 143.026C279.619 141.617 282.014 139.665 283.745 137.17C285.475 134.674 286.34 131.797 286.34 128.537C286.34 125.237 285.415 122.319 283.563 119.783C281.752 117.208 279.136 115.195 275.715 113.746C272.335 112.298 268.31 111.573 263.642 111.573H252.111V92.3757H263.642C267.586 92.3757 271.067 91.6915 274.085 90.3231C277.144 88.9548 279.519 87.0632 281.209 84.6484C282.899 82.1934 283.745 79.3359 283.745 76.076C283.745 72.977 283 70.2604 281.511 67.9261C280.062 65.5516 278.009 63.7003 275.353 62.3722C272.737 61.044 269.679 60.38 266.177 60.38C262.635 60.38 259.396 61.0239 256.458 62.3118C253.52 63.5594 251.165 65.3504 249.394 67.6847C247.624 70.0189 246.678 72.7557 246.557 75.8949H221.504C221.625 68.7713 223.657 62.4929 227.601 57.0597C231.545 51.6264 236.858 47.3804 243.539 44.3217C250.26 41.2228 257.846 39.6733 266.298 39.6733C274.83 39.6733 282.296 41.2228 288.695 44.3217C295.094 47.4207 300.064 51.6063 303.606 56.8785C307.188 62.1106 308.959 67.9865 308.919 74.5064C308.959 81.4287 306.806 87.2041 302.459 91.8324C298.153 96.4607 292.538 99.3987 285.616 100.646V101.612C294.712 102.779 301.634 105.939 306.383 111.09C311.172 116.201 313.547 122.601 313.507 130.288C313.547 137.331 311.514 143.589 307.409 149.062C303.344 154.536 297.73 158.842 290.566 161.982C283.402 165.121 275.192 166.69 265.936 166.69Z" fill="#003E44"/>
<path d="M21.0348 189.081H30.7857C34.2773 189.081 37.3715 189.82 40.0682 191.296C42.7792 192.772 44.9011 194.851 46.434 197.534C47.9811 200.202 48.7546 203.339 48.7546 206.944C48.7546 210.436 47.9811 213.48 46.434 216.077C44.9011 218.675 42.7792 220.697 40.0682 222.145C37.3715 223.579 34.2773 224.295 30.7857 224.295H21.0348C17.529 224.295 14.4206 223.586 11.7096 222.166C8.99867 220.733 6.86965 218.717 5.32256 216.12C3.78966 213.523 3.02321 210.457 3.02321 206.923C3.02321 203.318 3.79676 200.181 5.34385 197.512C6.90513 194.83 9.04125 192.758 11.7522 191.296C14.4632 189.82 17.5573 189.081 21.0348 189.081ZM21.0348 196.789C19.1612 196.789 17.5077 197.165 16.0741 197.917C14.6548 198.655 13.5477 199.776 12.7529 201.281C11.958 202.785 11.5606 204.666 11.5606 206.923C11.5606 209.08 11.9651 210.876 12.7741 212.309C13.5974 213.743 14.7187 214.814 16.138 215.524C17.5573 216.234 19.1896 216.588 21.0348 216.588H30.8496C32.7089 216.588 34.3341 216.226 35.725 215.503C37.1302 214.779 38.216 213.7 38.9824 212.267C39.7631 210.833 40.1534 209.059 40.1534 206.944C40.1534 204.687 39.7631 202.807 38.9824 201.302C38.216 199.798 37.1302 198.669 35.725 197.917C34.3341 197.165 32.7089 196.789 30.8496 196.789H21.0348ZM30.2747 183.631V229.788H21.5244V183.631H30.2747ZM60.3425 228V184.398H89.723V191.998H69.5612V202.388H88.2114V209.988H69.5612V220.399H89.8082V228H60.3425ZM101.848 228V184.398H119.306C122.514 184.398 125.19 184.873 127.333 185.824C129.476 186.775 131.087 188.095 132.166 189.784C133.244 191.459 133.784 193.389 133.784 195.575C133.784 197.278 133.443 198.776 132.762 200.067C132.081 201.345 131.144 202.395 129.952 203.218C128.774 204.027 127.425 204.602 125.906 204.943V205.368C127.567 205.439 129.121 205.908 130.569 206.774C132.031 207.639 133.216 208.853 134.124 210.414C135.033 211.961 135.487 213.807 135.487 215.95C135.487 218.263 134.912 220.328 133.763 222.145C132.627 223.948 130.945 225.374 128.717 226.425C126.488 227.475 123.742 228 120.477 228H101.848ZM111.067 220.463H118.583C121.152 220.463 123.025 219.974 124.203 218.994C125.381 218.001 125.97 216.681 125.97 215.034C125.97 213.828 125.679 212.763 125.097 211.841C124.515 210.918 123.685 210.194 122.606 209.669C121.542 209.144 120.272 208.881 118.795 208.881H111.067V220.463ZM111.067 202.643H117.901C119.165 202.643 120.286 202.423 121.265 201.983C122.259 201.529 123.039 200.89 123.607 200.067C124.189 199.244 124.48 198.258 124.48 197.108C124.48 195.532 123.919 194.262 122.798 193.297C121.691 192.332 120.115 191.849 118.072 191.849H111.067V202.643ZM146.282 228V184.398H163.484C166.791 184.398 169.609 185.029 171.937 186.292C174.264 187.541 176.038 189.28 177.259 191.509C178.494 193.723 179.111 196.278 179.111 199.173C179.111 202.068 178.487 204.623 177.238 206.838C175.989 209.052 174.179 210.776 171.809 212.011C169.453 213.246 166.6 213.863 163.25 213.863H152.286V206.476H161.76C163.534 206.476 164.996 206.17 166.146 205.56C167.309 204.936 168.175 204.077 168.743 202.984C169.325 201.877 169.616 200.607 169.616 199.173C169.616 197.725 169.325 196.462 168.743 195.383C168.175 194.29 167.309 193.446 166.146 192.85C164.982 192.239 163.506 191.934 161.717 191.934H155.5V228H146.282ZM192.376 228H182.497L197.549 184.398H209.429L224.46 228H214.582L203.66 194.361H203.319L192.376 228ZM191.758 210.861H215.092V218.057H191.758V210.861ZM232.141 228V220.591L233.376 220.485C234.966 220.357 236.25 219.754 237.23 218.675C238.209 217.582 238.94 215.843 239.423 213.459C239.919 211.06 240.239 207.838 240.381 203.793L241.104 184.398H270.698V228H261.735V191.785H249.663L248.982 206.965C248.755 211.848 248.173 215.836 247.236 218.93C246.313 222.025 244.837 224.31 242.808 225.786C240.792 227.262 238.032 228 234.526 228H232.141ZM316.563 228H307.366V191.934H301.149C299.375 191.934 297.899 192.197 296.721 192.722C295.557 193.233 294.684 193.985 294.102 194.979C293.52 195.972 293.229 197.193 293.229 198.641C293.229 200.074 293.52 201.274 294.102 202.239C294.684 203.204 295.557 203.928 296.721 204.41C297.884 204.893 299.346 205.134 301.106 205.134H311.113V212.543H299.616C296.281 212.543 293.428 211.99 291.057 210.883C288.687 209.776 286.877 208.186 285.628 206.114C284.379 204.027 283.755 201.536 283.755 198.641C283.755 195.759 284.365 193.254 285.586 191.125C286.821 188.982 288.602 187.329 290.93 186.165C293.272 184.987 296.089 184.398 299.382 184.398H316.563V228ZM293.037 208.157H302.98L292.377 228H282.201L293.037 208.157Z" fill="#003E44"/>
</svg>
