<svg width="700" height="140" viewBox="0 0 700 140" fill="none" xmlns="http://www.w3.org/2000/svg">
<g filter="url(#filter0_b_201_4)">
<rect width="700" height="140" rx="30" fill="#387278" fill-opacity="0.69"/>
</g>
<path d="M141.114 69.5455C141.114 73.3523 140.392 76.5909 138.949 79.2614C137.517 81.9318 135.563 83.9716 133.085 85.3807C130.619 86.7784 127.847 87.4773 124.767 87.4773C121.665 87.4773 118.881 86.7727 116.415 85.3636C113.949 83.9545 112 81.9148 110.568 79.2443C109.136 76.5739 108.42 73.3409 108.42 69.5455C108.42 65.7386 109.136 62.5 110.568 59.8295C112 57.1591 113.949 55.125 116.415 53.7273C118.881 52.3182 121.665 51.6136 124.767 51.6136C127.847 51.6136 130.619 52.3182 133.085 53.7273C135.563 55.125 137.517 57.1591 138.949 59.8295C140.392 62.5 141.114 65.7386 141.114 69.5455ZM133.631 69.5455C133.631 67.0795 133.261 65 132.523 63.3068C131.795 61.6136 130.767 60.3295 129.438 59.4545C128.108 58.5795 126.551 58.142 124.767 58.142C122.983 58.142 121.426 58.5795 120.097 59.4545C118.767 60.3295 117.733 61.6136 116.994 63.3068C116.267 65 115.903 67.0795 115.903 69.5455C115.903 72.0114 116.267 74.0909 116.994 75.7841C117.733 77.4773 118.767 78.7614 120.097 79.6364C121.426 80.5114 122.983 80.9489 124.767 80.9489C126.551 80.9489 128.108 80.5114 129.438 79.6364C130.767 78.7614 131.795 77.4773 132.523 75.7841C133.261 74.0909 133.631 72.0114 133.631 69.5455ZM147.498 58.1761V52.0909H176.168V58.1761H165.481V87H158.185V58.1761H147.498ZM213.937 64.3125H206.471C206.335 63.3466 206.056 62.4886 205.636 61.7386C205.216 60.9773 204.676 60.3295 204.017 59.7955C203.358 59.2614 202.596 58.8523 201.733 58.5682C200.88 58.2841 199.954 58.142 198.954 58.142C197.147 58.142 195.573 58.5909 194.233 59.4886C192.892 60.375 191.852 61.6705 191.113 63.375C190.375 65.0682 190.005 67.125 190.005 69.5455C190.005 72.0341 190.375 74.125 191.113 75.8182C191.863 77.5114 192.909 78.7898 194.25 79.6534C195.591 80.517 197.142 80.9489 198.903 80.9489C199.892 80.9489 200.806 80.8182 201.647 80.5568C202.5 80.2955 203.255 79.9148 203.914 79.4148C204.573 78.9034 205.119 78.2841 205.551 77.5568C205.994 76.8295 206.301 76 206.471 75.0682L213.937 75.1023C213.744 76.7045 213.261 78.25 212.488 79.7386C211.727 81.2159 210.698 82.5398 209.403 83.7102C208.119 84.8693 206.585 85.7898 204.801 86.4716C203.028 87.142 201.022 87.4773 198.784 87.4773C195.67 87.4773 192.886 86.7727 190.431 85.3636C187.988 83.9545 186.056 81.9148 184.636 79.2443C183.227 76.5739 182.522 73.3409 182.522 69.5455C182.522 65.7386 183.238 62.5 184.67 59.8295C186.102 57.1591 188.045 55.125 190.5 53.7273C192.954 52.3182 195.716 51.6136 198.784 51.6136C200.806 51.6136 202.681 51.8977 204.409 52.4659C206.147 53.0341 207.687 53.8636 209.028 54.9545C210.369 56.0341 211.46 57.358 212.301 58.9261C213.153 60.4943 213.698 62.2898 213.937 64.3125ZM244.189 87L232.973 72.1193H230.45V87H223.07V52.0909H230.45V66.0341H231.933L243.524 52.0909H252.712L239.092 68.2841L253.342 87H244.189ZM266.911 87H259.002L271.053 52.0909H280.565L292.599 87H284.69L275.945 60.0682H275.673L266.911 87ZM266.417 73.2784H285.099V79.0398H266.417V73.2784ZM300.64 87V52.0909H308.021V66.4943H323.004V52.0909H330.368V87H323.004V72.5795H308.021V87H300.64ZM340.293 52.0909H347.656V74.0455H347.946L363.031 52.0909H369.492V87H362.111V65.0284H361.855L346.685 87H340.293V52.0909ZM379.43 87V52.0909H393.202C395.85 52.0909 398.106 52.5966 399.969 53.608C401.833 54.608 403.254 56 404.231 57.7841C405.219 59.5568 405.714 61.6023 405.714 63.9205C405.714 66.2386 405.214 68.2841 404.214 70.0568C403.214 71.8295 401.765 73.2102 399.867 74.1989C397.981 75.1875 395.697 75.6818 393.015 75.6818H384.237V69.767H391.822C393.242 69.767 394.413 69.5227 395.333 69.0341C396.265 68.5341 396.958 67.8466 397.413 66.9716C397.879 66.0852 398.112 65.0682 398.112 63.9205C398.112 62.7614 397.879 61.75 397.413 60.8864C396.958 60.0114 396.265 59.3352 395.333 58.858C394.401 58.3693 393.219 58.125 391.788 58.125H386.81V87H379.43ZM446.427 69.5455C446.427 73.3523 445.706 76.5909 444.263 79.2614C442.831 81.9318 440.876 83.9716 438.399 85.3807C435.933 86.7784 433.16 87.4773 430.081 87.4773C426.979 87.4773 424.194 86.7727 421.729 85.3636C419.263 83.9545 417.314 81.9148 415.882 79.2443C414.45 76.5739 413.734 73.3409 413.734 69.5455C413.734 65.7386 414.45 62.5 415.882 59.8295C417.314 57.1591 419.263 55.125 421.729 53.7273C424.194 52.3182 426.979 51.6136 430.081 51.6136C433.16 51.6136 435.933 52.3182 438.399 53.7273C440.876 55.125 442.831 57.1591 444.263 59.8295C445.706 62.5 446.427 65.7386 446.427 69.5455ZM438.944 69.5455C438.944 67.0795 438.575 65 437.836 63.3068C437.109 61.6136 436.081 60.3295 434.751 59.4545C433.422 58.5795 431.865 58.142 430.081 58.142C428.297 58.142 426.74 58.5795 425.41 59.4545C424.081 60.3295 423.047 61.6136 422.308 63.3068C421.581 65 421.217 67.0795 421.217 69.5455C421.217 72.0114 421.581 74.0909 422.308 75.7841C423.047 77.4773 424.081 78.7614 425.41 79.6364C426.74 80.5114 428.297 80.9489 430.081 80.9489C431.865 80.9489 433.422 80.5114 434.751 79.6364C436.081 78.7614 437.109 77.4773 437.836 75.7841C438.575 74.0909 438.944 72.0114 438.944 69.5455ZM455.735 87V52.0909H469.712C472.28 52.0909 474.422 52.4716 476.138 53.233C477.854 53.9943 479.144 55.0511 480.007 56.4034C480.871 57.7443 481.303 59.2898 481.303 61.0398C481.303 62.4034 481.03 63.6023 480.485 64.6364C479.939 65.6591 479.189 66.5 478.235 67.1591C477.292 67.8068 476.212 68.267 474.996 68.5398V68.8807C476.326 68.9375 477.57 69.3125 478.729 70.0057C479.899 70.6989 480.848 71.6705 481.576 72.9205C482.303 74.1591 482.667 75.6364 482.667 77.3523C482.667 79.2045 482.206 80.858 481.286 82.3125C480.377 83.7557 479.03 84.8977 477.246 85.7386C475.462 86.5795 473.263 87 470.649 87H455.735ZM463.115 80.9659H469.132C471.189 80.9659 472.689 80.5739 473.632 79.7898C474.576 78.9943 475.047 77.9375 475.047 76.6193C475.047 75.6534 474.814 74.8011 474.348 74.0625C473.882 73.3239 473.218 72.7443 472.354 72.3239C471.502 71.9034 470.485 71.6932 469.303 71.6932H463.115V80.9659ZM463.115 66.6989H468.587C469.598 66.6989 470.496 66.5227 471.28 66.1705C472.076 65.8068 472.701 65.2955 473.155 64.6364C473.621 63.9773 473.854 63.1875 473.854 62.267C473.854 61.0057 473.405 59.9886 472.507 59.2159C471.621 58.4432 470.36 58.0568 468.723 58.0568H463.115V66.6989ZM497.326 87H489.417L501.468 52.0909H510.98L523.014 87H515.105L506.36 60.0682H506.087L497.326 87ZM496.832 73.2784H515.514V79.0398H496.832V73.2784ZM525.46 58.1761V52.0909H554.131V58.1761H543.443V87H536.148V58.1761H525.46ZM567.55 64.9943H575.868C578.641 64.9943 581.027 65.4432 583.027 66.3409C585.039 67.2273 586.59 68.483 587.681 70.108C588.772 71.733 589.312 73.6477 589.3 75.8523C589.312 78.0455 588.772 79.983 587.681 81.6648C586.59 83.3352 585.039 84.642 583.027 85.5852C581.027 86.5284 578.641 87 575.868 87H562.829V52.0909H570.192V81.0682H575.868C577.198 81.0682 578.317 80.8295 579.226 80.3523C580.135 79.8636 580.823 79.2216 581.289 78.4261C581.766 77.6193 581.999 76.7386 581.988 75.7841C581.999 74.3977 581.476 73.2273 580.419 72.2727C579.374 71.3068 577.857 70.8239 575.868 70.8239H567.55V64.9943Z" fill="white"/>
<defs>
<filter id="filter0_b_201_4" x="-30" y="-30" width="760" height="200" filterUnits="userSpaceOnUse" color-interpolation-filters="sRGB">
<feFlood flood-opacity="0" result="BackgroundImageFix"/>
<feGaussianBlur in="BackgroundImageFix" stdDeviation="15"/>
<feComposite in2="SourceAlpha" operator="in" result="effect1_backgroundBlur_201_4"/>
<feBlend mode="normal" in="SourceGraphic" in2="effect1_backgroundBlur_201_4" result="shape"/>
</filter>
</defs>
</svg>
